#!OML:ASF H:\Male1\Project 1\Capture day 1\Session 1\Male1.ASF
:FULLY-SPECIFIED
:DEGREES
846
root -14.442 15.1168 -3.21901 -1.61001 9.68682 -0.100102
lowerback 8.40708 0.255384 -8.6781
upperback 4.71392 -0.268446 -2.41404
thorax 0.242904 -0.256934 2.37882
lowerneck -10.996 -2.00891 -1.92199
upperneck 13.7217 -3.77646 8.88117
head 6.18523 -1.24197 2.81803
rclavicle -1.74931e-014 3.18055e-015
rhumerus -43.4473 17.5185 -94.2694
rradius 35.8576
rwrist -21.2898
rhand -18.1238 1.8391
rfingers 7.12502
rthumb 8.15081 -27.9837
lclavicle -1.74931e-014 3.18055e-015
lhumerus -45.1855 -3.02144 78.2969
lradius 33.1635
lwrist 5.61453
lhand -21.9318 13.1022
lfingers 7.12502
lthumb 4.47462 43.0349
rfemur -29.0881 -18.1352 22.791
rtibia 52.1763
rfoot -18.152 -17.3938
rtoes -29.2414
lfemur 2.4735 -6.17836 -26.7013
ltibia 22.8288
lfoot -27.461 15.0908
ltoes 10.3295
847
root -14.5978 15.1301 -3.22311 -1.60902 9.4271 -0.251418
lowerback 8.21049 0.334068 -8.52346
upperback 4.6551 -0.136369 -2.35293
thorax 0.273689 -0.189197 2.346
lowerneck -10.8116 -2.04414 -1.87926
upperneck 13.5086 -3.83028 8.98508
head 6.09085 -1.26842 2.83859
rclavicle 8.54774e-015 1.27222e-014
rhumerus -43.611 17.1003 -93.8891
rradius 35.8662
rwrist -21.3317
rhand -18.393 1.77339
rfingers 7.12502
rthumb 7.89102 -28.0593
lclavicle 8.54774e-015 1.27222e-014
lhumerus -45.6862 -3.41295 78.7932
lradius 33.224
lwrist 5.70528
lhand -21.1689 13.2695
lfingers 7.12502
lthumb 5.21127 43.1854
rfemur -27.5536 -16.051 20.561
rtibia 50.5683
rfoot -20.448 -17.2875
rtoes -20.5919
lfemur 2.33109 -6.6162 -25.9802
ltibia 22.9022
lfoot -27.6763 15.3058
ltoes 10.9334
848
root -14.7535 15.1385 -3.22586 -1.60077 9.17136 -0.418617
lowerback 8.02678 0.423351 -8.29691
upperback 4.58533 0.0117826 -2.28869
thorax 0.284 -0.111164 2.27578
lowerneck -10.8216 -2.11899 -1.83989
upperneck 13.5884 -3.94664 8.99071
head 6.12414 -1.3197 2.82423
rclavicle 1.90833e-014 1.43125e-014
rhumerus -43.7542 16.6218 -93.4955
rradius 35.7642
rwrist -21.3663
rhand -18.4448 1.9441
rfingers 7.12502
rthumb 7.84107 -27.8905
lclavicle 1.90833e-014 1.43125e-014
lhumerus -46.0867 -3.83703 79.3501
lradius 33.2138
lwrist 6.08233
lhand -22.5088 13.4516
lfingers 7.12502
lthumb 3.91743 43.3953
rfemur -25.968 -13.8359 18.4573
rtibia 48.806
rfoot -19.7354 -18.2888
rtoes -23.5808
lfemur 2.26978 -7.07105 -25.2478
ltibia 22.8497
lfoot -27.7658 15.65
ltoes 11.0212
849
root -14.9096 15.1482 -3.22688 -1.60617 8.94029 -0.455646
lowerback 7.85827 0.505273 -8.10313
upperback 4.54694 0.147823 -2.29096
thorax 0.321419 -0.0404828 2.15592
lowerneck -10.8742 -2.21733 -1.8785
upperneck 13.7272 -4.09821 9.0676
head 6.18848 -1.38376 2.84274
rclavicle -2.80286e-014 3.18055e-015
rhumerus -43.8505 16.1359 -93.19
rradius 35.5559
rwrist -21.1815
rhand -18.504 2.07672
rfingers 7.12502
rthumb 7.78391 -27.76
lclavicle -2.80286e-014 3.18055e-015
lhumerus -46.4208 -4.1889 79.7885
lradius 33.2157
lwrist 6.22993
lhand -22.0479 12.7918
lfingers 7.12502
lthumb 4.36255 42.7269
rfemur -24.3005 -11.4634 16.3122
rtibia 46.8782
rfoot -19.8602 -19.1505
rtoes -23.0767
lfemur 2.20859 -7.2504 -24.5892
ltibia 22.858
lfoot -27.7603 15.8552
ltoes 10.6733
850
root -15.0656 15.1587 -3.22462 -1.56791 8.74254 -0.323199
lowerback 7.64488 0.57031 -8.03318
upperback 4.5264 0.259065 -2.36285
thorax 0.406861 0.014579 2.03497
lowerneck -10.8236 -2.28546 -1.89492
upperneck 13.7487 -4.20636 9.17103
head 6.19571 -1.42961 2.86954
rclavicle -1.09332e-014 -1.59028e-015
rhumerus -43.9254 15.8017 -93.0561
rradius 35.3255
rwrist -21.0487
rhand -18.6233 1.91834
rfingers 7.12502
rthumb 7.66872 -27.9226
lclavicle -1.09332e-014 -1.59028e-015
lhumerus -46.6754 -4.37735 79.9927
lradius 33.2433
lwrist 6.17609
lhand -23.4356 14.0516
lfingers 7.12502
lthumb 3.02244 44.0099
rfemur -22.585 -8.94654 14.1298
rtibia 44.7597
rfoot -20.5262 -20.0341
rtoes -20.6789
lfemur 2.0276 -7.35725 -24.0905
ltibia 23.0702
lfoot -27.8195 15.9125
ltoes 10.4438
851
root -15.2257 15.1484 -3.2227 -1.81361 8.55115 -0.263982
lowerback 7.74231 0.671989 -7.93006
upperback 4.57348 0.392786 -2.39014
thorax 0.389378 0.0829701 1.9392
lowerneck -10.7494 -2.33926 -1.87367
upperneck 13.736 -4.29255 9.23845
head 6.18528 -1.46725 2.88035
rclavicle 5.96354e-015 -1.43125e-014
rhumerus -43.983 15.5674 -92.9689
rradius 35.0778
rwrist -20.9297
rhand -18.3806 1.81506
rfingers 7.12502
rthumb 7.90304 -28.0172
lclavicle 5.96354e-015 -1.43125e-014
lhumerus -46.9028 -4.45788 80.1046
lradius 33.3193
lwrist 6.26069
lhand -22.3777 13.5701
lfingers 7.12502
lthumb 4.04407 43.5115
rfemur -20.494 -6.28453 12.1923
rtibia 42.4817
rfoot -21.3523 -20.9921
rtoes -18.4048
lfemur 2.13185 -7.52674 -23.5689
ltibia 23.3113
lfoot -27.8684 16.1459
ltoes 9.5177
852
root -15.3891 15.1301 -3.21745 -2.00309 8.3044 -0.329558
lowerback 7.7354 0.828081 -7.64066
upperback 4.59825 0.619754 -2.41642
thorax 0.398413 0.200934 1.73462
lowerneck -10.6172 -2.4609 -1.76963
upperneck 13.7371 -4.47673 9.2479
head 6.1721 -1.55347 2.85065
rclavicle 1.33186e-014 6.36111e-015
rhumerus -44.0618 15.1348 -92.8643
rradius 34.8384
rwrist -20.6284
rhand -17.9179 1.86417
rfingers 7.12502
rthumb 8.34959 -27.9508
lclavicle 1.33186e-014 6.36111e-015
lhumerus -47.1077 -4.63368 80.137
lradius 33.4346
lwrist 6.33798
lhand -22.1731 13.9734
lfingers 7.12502
lthumb 4.24161 43.9109
rfemur -18.4824 -3.53083 10.6365
rtibia 40.1445
rfoot -22.2289 -21.9996
rtoes -16.6869
lfemur 2.2267 -7.51298 -22.8563
ltibia 23.4145
lfoot -27.6927 16.5135
ltoes 7.63527
853
root -15.5522 15.1281 -3.20518 -2.13289 8.06134 -0.29702
lowerback 7.63878 1.01284 -7.33212
upperback 4.62268 0.894661 -2.54422
thorax 0.457133 0.343235 1.41183
lowerneck -10.4624 -2.60615 -1.50642
upperneck 13.7509 -4.70743 9.17777
head 6.1564 -1.6601 2.76537
rclavicle 1.31198e-014 -6.36111e-015
rhumerus -44.122 14.5003 -92.8233
rradius 34.5769
rwrist -20.2177
rhand -17.6873 1.94925
rfingers 7.12502
rthumb 8.57214 -27.8567
lclavicle 1.31198e-014 -6.36111e-015
lhumerus -47.1833 -4.97761 80.0588
lradius 33.4819
lwrist 6.41255
lhand -21.7919 13.7425
lfingers 7.12502
lthumb 4.60968 43.6724
rfemur -16.648 -0.788418 9.18601
rtibia 37.8605
rfoot -22.8983 -23.5162
rtoes -16.8669
lfemur 2.36257 -7.4165 -22.2165
ltibia 23.4095
lfoot -27.4885 16.867
ltoes 6.25778
854
root -15.7137 15.1379 -3.18671 -2.27922 7.87493 -0.0947641
lowerback 7.62525 1.12775 -7.21768
upperback 4.64057 1.05619 -2.64644
thorax 0.47351 0.426534 1.23086
lowerneck -10.4343 -2.64979 -1.33554
upperneck 13.8654 -4.78502 9.05468
head 6.18541 -1.69498 2.69174
rclavicle -6.55989e-015 1.11319e-014
rhumerus -44.2639 14.1738 -92.8077
rradius 34.3933
rwrist -19.9017
rhand -17.6771 1.98274
rfingers 7.12502
rthumb 8.582 -27.8228
lclavicle -6.55989e-015 1.11319e-014
lhumerus -47.2683 -4.9772 79.9509
lradius 33.4635
lwrist 6.37955
lhand -23.5271 13.8826
lfingers 7.12502
lthumb 2.93406 43.8422
rfemur -14.931 1.93147 7.71898
rtibia 35.7142
rfoot -23.5559 -25.4291
rtoes -17.9765
lfemur 2.66686 -7.47206 -21.7979
ltibia 23.2397
lfoot -27.4395 17.0559
ltoes 6.4003
855
root -15.8761 15.1345 -3.1666 -2.48182 7.72245 0.182253
lowerback 7.6977 1.1961 -7.14428
upperback 4.68564 1.14696 -2.71325
thorax 0.475942 0.473267 1.11333
lowerneck -10.4055 -2.67213 -1.31263
upperneck 13.9287 -4.79983 8.90207
head 6.19648 -1.71131 2.63842
rclavicle 1.49089e-014 7.95139e-015
rhumerus -44.4686 14.0223 -92.7381
rradius 34.3705
rwrist -19.7132
rhand -17.5661 1.888
rfingers 7.12502
rthumb 8.68909 -27.9132
lclavicle 1.49089e-014 7.95139e-015
lhumerus -47.3337 -4.71539 79.8249
lradius 33.4249
lwrist 6.2326
lhand -20.626 13.2348
lfingers 7.12502
lthumb 5.7354 43.1372
rfemur -13.2455 4.59832 6.37891
rtibia 33.7847
rfoot -24.8768 -27.1464
rtoes -17.7384
lfemur 3.17376 -7.63214 -21.4944
ltibia 22.8385
lfoot -27.3809 17.0714
ltoes 7.03452
856
root -16.0428 15.1196 -3.14541 -2.63263 7.54684 0.438261
lowerback 7.69441 1.24879 -6.9878
upperback 4.74514 1.23064 -2.80437
thorax 0.537663 0.516618 0.926524
lowerneck -10.3827 -2.71814 -1.21224
upperneck 13.9346 -4.83596 8.62838
head 6.18668 -1.7449 2.53131
rclavicle 1.8487e-014 4.13472e-014
rhumerus -44.5907 13.8088 -92.6623
rradius 34.3524
rwrist -19.4844
rhand -17.3042 1.86169
rfingers 7.12502
rthumb 8.94182 -27.9288
lclavicle 1.8487e-014 4.13472e-014
lhumerus -47.2546 -4.46789 79.6281
lradius 33.311
lwrist 6.15735
lhand -22.1852 13.9674
lfingers 7.12502
lthumb 4.22995 43.9051
rfemur -11.7343 7.28567 5.28589
rtibia 32.0815
rfoot -26.6827 -28.7059
rtoes -16.7858
lfemur 3.63436 -7.60037 -21.0855
ltibia 22.3745
lfoot -27.1689 16.9555
ltoes 7.14324
857
root -16.2149 15.1033 -3.12207 -2.67145 7.34237 0.701736
lowerback 7.60228 1.24531 -6.98281
upperback 4.76153 1.23607 -2.81217
thorax 0.605513 0.517254 0.917128
lowerneck -10.4755 -2.67246 -1.13698
upperneck 14.083 -4.74802 8.30724
head 6.2347 -1.71633 2.42379
rclavicle -1.55052e-014 9.54166e-015
rhumerus -44.7228 13.8787 -92.5776
rradius 34.308
rwrist -19.2724
rhand -17.2462 1.90381
rfingers 7.12502
rthumb 8.99774 -27.8843
lclavicle -1.55052e-014 9.54166e-015
lhumerus -47.1841 -3.90463 79.4136
lradius 33.1652
lwrist 6.08707
lhand -21.8879 14.483
lfingers 7.12502
lthumb 4.51701 44.4148
rfemur -10.4692 9.86698 4.36659
rtibia 30.5542
rfoot -28.3262 -30.1716
rtoes -16.2059
lfemur 3.87905 -7.37959 -20.5789
ltibia 22.078
lfoot -26.931 16.7264
ltoes 6.95808
858
root -16.3906 15.0858 -3.09626 -2.66376 7.06278 0.970974
lowerback 7.4762 1.26653 -6.98726
upperback 4.76865 1.27621 -2.82345
thorax 0.680121 0.534975 0.90744
lowerneck -10.5346 -2.60116 -1.13487
upperneck 14.2057 -4.64196 8.18703
head 6.27505 -1.66917 2.39444
rclavicle -1.63003e-014 1.59028e-014
rhumerus -44.8613 13.9659 -92.5026
rradius 34.3524
rwrist -19.2351
rhand -17.2508 1.76282
rfingers 7.12502
rthumb 8.99333 -28.0255
lclavicle -1.63003e-014 1.59028e-014
lhumerus -47.0815 -3.31398 79.183
lradius 33.0308
lwrist 6.01878
lhand -22.2981 14.7756
lfingers 7.12502
lthumb 4.12092 44.7155
rfemur -9.39339 12.0059 3.65638
rtibia 29.2198
rfoot -30.4865 -31.1782
rtoes -14.1799
lfemur 4.02448 -6.99985 -20.0209
ltibia 21.9261
lfoot -26.6734 16.5421
ltoes 6.27553
859
root -16.5701 15.0687 -3.0708 -2.59688 6.85884 1.11845
lowerback 7.36834 1.19586 -6.79059
upperback 4.75345 1.20316 -2.83555
thorax 0.730967 0.501546 0.792973
lowerneck -10.5915 -2.50569 -1.11718
upperneck 14.2813 -4.48925 7.98929
head 6.29564 -1.60644 2.34167
rclavicle -3.26007e-014 -2.8625e-014
rhumerus -44.9967 14.0786 -92.4807
rradius 34.485
rwrist -19.1935
rhand -17.0089 1.69513
rfingers 7.12502
rthumb 9.22672 -28.083
lclavicle -3.26007e-014 -2.8625e-014
lhumerus -46.9682 -2.68845 78.9185
lradius 32.898
lwrist 6.068
lhand -22.1531 14.3601
lfingers 7.12502
lthumb 4.26095 44.2972
rfemur -8.46394 13.8353 3.28626
rtibia 28.0527
rfoot -32.9559 -32.343
rtoes -12.4565
lfemur 4.01769 -6.67918 -19.3227
ltibia 21.8682
lfoot -26.3318 16.5656
ltoes 4.77128
